# xmcd
#
# Track frame offsets: 
#        150
#        15258
#        38402
#        59064
#        75751
#        95628
#        101232
#        116358
#        131124
#        152277
#        163428
#        170175
#        189623
#        222937
#
# Disc length: 3140 seconds
#
# Revision: 0
# Processed by: cddbd v1.4PL0 Copyright (c) Steve Scherf et al.
# Submitted via: ExactAudioCopy v0.95a2
#
DISCID=b70c420e
DTITLE=Four Of A Kind - Track Of Life
DYEAR=2003
DGENRE=Country
TTITLE0=keep it in the middle of the road
TTITLE1=the sun is rising again
TTITLE2=story
TTITLE3=the devil went down to georgia
TTITLE4=just try it
TTITLE5=back to groove
TTITLE6=workin' on the railroad
TTITLE7=secret of love
TTITLE8=friends in low places
TTITLE9=fiddle song
TTITLE10=89 crops
TTITLE11=track of life
TTITLE12=turn the page
TTITLE13=toss the feathers
EXTD=
EXTT0=
EXTT1=
EXTT2=
EXTT3=
EXTT4=
EXTT5=
EXTT6=
EXTT7=
EXTT8=
EXTT9=
EXTT10=
EXTT11=
EXTT12=
EXTT13=
PLAYORDER=
